<?xml version="1.0" standalone="no"?>
<!DOCTYPE svg PUBLIC "-//W3C//DTD SVG 20010904//EN"
 "http://www.w3.org/TR/2001/REC-SVG-20010904/DTD/svg10.dtd">
<svg version="1.0" xmlns="http://www.w3.org/2000/svg"
 width="684.000000pt" height="684.000000pt" viewBox="0 0 684.000000 684.000000"
 preserveAspectRatio="xMidYMid meet">
<metadata>
Created by potrace 1.14, written by Peter Selinger 2001-2017
</metadata>
<g transform="translate(0.000000,684.000000) scale(0.100000,-0.100000)"
fill="#000000" stroke="none">
<path d="M1244 5898 c-3 -4 -5 -29 -4 -55 0 -27 0 -55 0 -63 -1 -30 0 -156 1
-180 2 -35 2 -51 0 -85 -1 -16 -2 -75 -2 -130 0 -55 0 -107 0 -115 0 -8 0 -64
0 -125 0 -60 0 -117 0 -125 0 -8 0 -60 0 -115 0 -55 0 -107 0 -115 0 -8 0 -64
0 -125 0 -60 0 -117 0 -125 0 -8 0 -60 0 -115 0 -55 0 -107 0 -115 0 -8 0 -64
0 -125 0 -60 0 -117 0 -125 0 -8 0 -60 0 -115 0 -55 0 -107 0 -115 0 -8 0 -64
0 -125 0 -60 0 -117 0 -125 0 -8 0 -60 0 -115 0 -55 0 -107 0 -115 -1 -49 0
-239 1 -260 1 -14 1 -32 1 -40 0 -8 0 -37 0 -65 0 -27 0 -56 0 -62 -2 -25 -2
-39 -2 -103 1 -36 1 -72 0 -80 0 -8 0 -44 0 -80 1 -36 1 -72 0 -80 0 -8 0 -44
0 -80 1 -36 1 -72 0 -80 0 -8 0 -44 0 -80 1 -36 1 -72 0 -80 0 -8 0 -44 0 -80
1 -36 1 -72 0 -80 0 -8 0 -44 0 -80 1 -36 1 -72 0 -80 0 -34 1 -157 2 -180 1
-14 1 -33 1 -42 -2 -57 -1 -121 1 -178 l2 -64 2428 -1 c1335 0 2433 2 2440 5
10 4 12 472 12 2213 0 1214 -2 2208 -5 2208 -23 6 -4873 2 -4876 -3z m4684
-195 c9 -14 8 -4015 0 -4028 -4 -6 -822 -9 -2235 -8 -1225 1 -2235 2 -2245 2
-15 1 -16 146 -17 2018 0 1743 2 2019 14 2023 8 3 1018 5 2245 4 1597 0 2233
-3 2238 -11z"/>
<path d="M3655 5557 c-22 -12 -54 -48 -55 -60 0 -6 -37 -66 -65 -105 -1 -1
-11 -4 -22 -7 -15 -2 -40 17 -91 71 -99 103 -117 99 -167 -36 -15 -41 -32 -81
-38 -87 -13 -17 -39 -16 -62 2 -162 125 -194 124 -210 -5 -14 -119 -32 -149
-75 -129 -103 49 -157 69 -174 67 -34 -5 -44 -42 -39 -142 4 -82 2 -92 -15
-103 -15 -9 -30 -9 -57 -2 -60 17 -77 20 -127 26 -69 8 -76 -11 -48 -137 29
-128 30 -128 -106 -122 -100 4 -103 3 -118 -21 -18 -26 -16 -33 44 -159 23
-50 20 -84 -8 -92 -9 -2 -54 -10 -100 -16 -61 -9 -86 -18 -96 -32 -20 -28 -16
-38 44 -124 74 -104 70 -117 -44 -154 -78 -26 -117 -57 -110 -87 3 -11 36 -48
74 -82 93 -85 92 -96 -16 -162 -46 -28 -85 -53 -85 -57 -7 -37 -3 -53 15 -67
40 -30 123 -82 139 -88 35 -13 19 -53 -46 -113 -35 -33 -69 -69 -75 -81 -18
-33 19 -66 111 -98 43 -16 82 -35 86 -44 9 -16 -9 -62 -34 -87 -6 -7 -26 -35
-44 -63 -31 -48 -32 -52 -17 -75 8 -13 28 -27 43 -30 41 -8 129 -21 160 -25
23 -2 25 -47 4 -89 -12 -23 -30 -64 -41 -92 l-20 -51 22 -22 c19 -19 32 -22
78 -20 174 10 170 13 146 -102 -4 -16 -9 -38 -12 -47 -11 -36 -14 -64 -8 -80
11 -35 36 -37 134 -14 129 31 130 30 126 -98 -2 -94 -1 -102 21 -124 13 -13
27 -21 31 -19 16 9 148 70 167 77 29 11 53 -10 59 -51 2 -19 8 -56 11 -84 9
-68 28 -95 65 -95 17 0 30 5 30 10 0 6 6 10 14 10 8 0 16 3 18 8 2 4 27 25 57
46 46 33 57 36 77 27 13 -6 24 -19 24 -29 0 -10 4 -22 9 -27 5 -6 16 -34 26
-63 34 -106 64 -108 159 -9 51 52 77 72 91 70 13 -3 38 -33 70 -84 72 -119 98
-122 161 -17 21 35 42 65 46 66 4 2 8 10 8 18 0 8 5 15 10 15 6 1 16 2 23 3 6
1 44 -31 84 -71 101 -104 121 -99 169 38 38 107 52 114 125 64 30 -20 56 -40
59 -43 11 -15 51 -32 74 -32 29 0 37 14 51 95 3 22 8 47 10 55 2 8 4 26 4 40
1 14 9 30 20 37 15 9 35 4 114 -32 96 -43 97 -43 120 -24 23 18 24 23 22 121
-3 113 7 134 52 117 13 -5 23 -7 23 -5 0 2 32 -4 72 -14 50 -13 77 -16 90 -9
21 11 33 51 23 76 -4 10 -9 29 -11 43 -3 14 -9 41 -15 62 -5 22 -6 45 0 60 7
20 15 23 47 21 218 -12 227 -4 164 136 -45 100 -44 126 3 135 50 9 111 19 127
20 9 1 21 5 28 10 6 4 12 4 12 -1 0 -4 7 2 15 14 19 28 17 38 -21 93 -80 115
-84 122 -74 140 5 10 46 31 90 46 141 50 146 71 38 174 -74 71 -84 100 -44
122 128 69 163 101 151 137 -5 16 -113 93 -151 108 -8 3 -17 16 -20 30 -6 22
3 35 66 93 55 51 73 74 73 94 0 30 -24 52 -68 62 -51 11 -132 51 -138 67 -3 9
5 30 18 49 14 18 30 43 36 56 7 12 16 22 21 22 4 0 8 7 8 15 0 8 4 15 9 15 16
0 21 44 7 66 -11 16 -35 24 -112 37 -53 9 -101 22 -105 29 -11 17 -2 52 29
113 37 75 42 100 25 125 -14 19 -22 21 -119 18 -115 -3 -129 3 -119 52 13 61
19 91 30 132 9 36 -2 68 -27 77 -12 4 -57 -1 -112 -14 -124 -30 -126 -29 -122
100 5 147 -10 159 -136 101 -40 -18 -80 -36 -88 -39 -31 -10 -47 17 -60 103
-14 96 -30 130 -63 130 -12 0 -56 -25 -97 -55 -41 -30 -79 -55 -85 -55 -25 0
-46 30 -71 105 -44 130 -66 134 -165 31 -72 -75 -99 -87 -121 -54 -4 7 -27 44
-49 81 -47 76 -65 91 -94 74z m66 -326 c47 -23 62 -86 35 -139 -26 -50 -83
-68 -136 -43 -103 48 -64 204 50 196 14 -1 37 -7 51 -14z m-198 -257 c78 -81
98 -96 127 -99 42 -3 64 7 112 54 20 20 62 60 92 90 l57 54 57 -13 c316 -70
613 -277 793 -551 l47 -71 -17 -42 c-10 -22 -27 -61 -38 -86 -87 -193 -87
-194 -66 -238 17 -35 20 -37 224 -129 l66 -30 -1 -109 -1 -109 -75 -5 -74 -5
-3 -70 c-4 -134 -55 -190 -173 -190 -95 0 -122 22 -145 117 -28 117 -67 189
-138 253 -54 49 -60 57 -44 66 34 20 143 117 169 150 94 125 103 269 23 404
-70 119 -231 220 -380 240 -22 2 -355 5 -739 5 l-700 0 45 47 c24 26 49 51 54
54 6 4 22 18 36 31 14 13 36 30 49 38 12 8 28 20 34 25 40 34 187 113 271 146
81 32 196 66 227 68 10 1 59 -42 111 -95z m-1067 -709 c77 -50 46 -176 -46
-189 -116 -17 -166 139 -63 194 38 20 74 18 109 -5z m2536 0 c37 -15 55 -94
34 -146 -10 -24 -61 -49 -99 -49 -26 0 -44 8 -67 31 -26 27 -30 38 -28 76 4
83 76 123 160 88z m-2215 -8 c4 -5 8 -193 8 -418 0 -403 0 -409 -20 -410 -11
0 -95 -2 -187 -2 l-168 -2 -15 67 c-25 112 -33 192 -30 304 1 60 3 114 4 120
0 6 25 21 54 33 28 13 59 27 67 32 8 5 22 12 30 15 137 53 157 87 111 196 -16
37 -25 68 -20 70 20 7 158 2 166 -5z m1115 -24 c51 -23 74 -52 81 -98 10 -69
-60 -120 -173 -125 -56 -2 -364 -3 -411 -1 -14 1 -16 17 -16 119 1 64 4 119 9
122 4 3 110 5 235 4 208 -1 232 -3 275 -21z m-102 -596 c66 -29 120 -101 134
-182 3 -17 8 -41 11 -55 3 -14 7 -36 10 -50 19 -101 44 -179 70 -220 31 -50
82 -99 115 -112 14 -6 146 -10 307 -10 321 0 301 8 216 -87 l-49 -54 -49 11
c-28 7 -62 14 -78 16 -15 3 -37 8 -48 11 -43 14 -94 12 -121 -3 -37 -21 -41
-32 -84 -249 -9 -47 -24 -73 -42 -73 -10 0 -22 -4 -28 -9 -25 -23 -226 -75
-339 -87 -82 -9 -243 -8 -300 1 -109 17 -158 27 -204 41 -28 8 -53 15 -56 15
-20 0 -139 60 -141 70 -9 54 -16 89 -24 119 -5 19 -12 53 -16 75 -9 57 -28 90
-64 107 -29 14 -41 14 -143 -9 -62 -13 -118 -25 -126 -26 -8 -1 -39 27 -70 63
l-55 65 545 3 545 2 0 193 c-1 105 -4 197 -8 202 -3 6 -69 10 -165 9 l-159 -1
0 116 c0 64 3 118 7 121 4 3 90 4 191 3 139 -1 192 -5 218 -16z m-876 -861
c42 -18 66 -51 66 -93 0 -64 -28 -94 -99 -108 -50 -9 -111 49 -111 107 0 38
36 86 72 97 18 5 34 10 36 10 1 1 18 -5 36 -13z m1608 -25 c28 -25 33 -36 33
-73 0 -60 -28 -95 -81 -103 -72 -12 -124 31 -124 100 0 93 103 138 172 76z"/>
<path d="M804 5467 l-90 -92 1 -2210 0 -2210 2441 -3 2441 -2 96 95 c86 86 93
95 68 96 -14 0 -1112 1 -2438 1 l-2413 1 -1 26 c0 14 -1 1006 -1 2204 -1 1198
-4 2180 -8 2182 -4 2 -47 -37 -96 -88z"/>
</g>
</svg>
